<svg xmlns="http://www.w3.org/2000/svg" viewBox="0 0 800 200" width="100%" height="100%">
  <defs>
    <style>
      @import url('https://fonts.googleapis.com/css2?family=Orbitron:wght@700&amp;display=swap');
      .brand-text {
        font-family: 'Orbitron', 'Michroma', sans-serif;
        font-weight: 700;
        fill: #ffffff;
        letter-spacing: 0.18em;
      }
    </style>
  </defs>
  
  <!-- Isotype (Left aligned, vertically centered, all white) -->
  <!-- Center: (1011.5, 831.0) mapped to (120, 100) at scale 0.132 -->
  <g transform="translate(120, 100) scale(0.132) translate(-1011.5, -831)">
    <path d="M 562.7,319.6 L 1141.0,319.0 L 1236.0,320.0 L 1267.0,322.5 L 1290.0,326.5 L 1317.0,334.0 L 1341.0,343.5 L 1365.0,355.9 L 1386.0,369.8 L 1412.0,390.9 L 1427.1,406.0 L 1444.4,427.0 L 1461.3,453.0 L 1472.1,475.0 L 1482.6,503.0 L 1489.2,529.0 L 1493.1,556.0 L 1494.6,590.0 L 1493.1,611.0 L 1488.3,641.0 L 1481.5,667.9 L 1465.1,709.8 L 1460.4,719.2 L 1457.6,721.8 L 1455.7,717.8 L 1453.3,690.2 L 1447.5,674.6 L 1435.2,649.0 L 1419.4,628.0 L 1399.7,609.1 L 1378.0,594.7 L 1350.4,581.2 L 1321.0,572.5 L 1299.0,569.0 L 1281.0,568.0 L 809.0,568.0 L 799.0,567.3 L 792.0,565.0 L 785.0,560.8 L 776.0,553.0 L 559.1,338.0 L 554.8,331.9 L 552.8,325.4 L 555.2,322.2 L 561.8,319.7 Z" fill="#ffffff" />
    <path d="M 1092.5,676.9 L 1408.0,677.0 L 1440.5,679.6 L 1445.9,683.4 L 1448.7,690.0 L 1451.7,710.0 L 1451.2,732.0 L 1447.0,744.0 L 1413.6,805.0 L 1401.4,821.0 L 1380.5,844.7 L 1345.6,874.9 L 1334.0,883.0 L 1318.0,891.8 L 1300.0,900.0 L 1281.0,906.9 L 1254.0,913.8 L 1227.0,917.6 L 1040.0,918.0 L 1033.0,919.0 L 1026.3,922.4 L 1019.1,929.0 L 984.6,970.0 L 726.2,1285.0 L 714.0,1295.2 L 708.0,1297.3 L 701.0,1298.0 L 501.0,1297.6 L 491.4,1294.4 L 485.1,1287.7 L 483.2,1279.0 L 487.0,1269.0 L 494.2,1260.2 L 532.8,1223.0 L 545.9,1207.0 L 862.0,733.0 L 884.9,699.0 L 893.5,688.3 L 905.0,680.0 L 918.0,677.1 L 1091.5,676.9 Z" fill="#ffffff" />
    <path d="M 1406.9,826.2 L 1415.0,828.9 L 1445.0,851.7 L 1462.6,868.0 L 1480.5,887.7 L 1491.9,902.0 L 1504.5,921.0 L 1519.3,952.0 L 1525.4,967.0 L 1530.2,984.0 L 1536.4,1015.0 L 1538.4,1033.0 L 1539.8,1055.0 L 1539.2,1072.0 L 1533.9,1109.0 L 1522.3,1153.0 L 1505.9,1190.0 L 1485.7,1221.0 L 1454.8,1257.5 L 1417.0,1289.5 L 1385.0,1309.1 L 1363.0,1319.2 L 1338.0,1328.3 L 1302.0,1337.4 L 1278.0,1340.9 L 1245.0,1343.0 L 1213.0,1342.0 L 1166.0,1343.0 L 1114.0,1342.0 L 1063.0,1343.0 L 881.0,1342.0 L 850.0,1343.0 L 809.0,1341.9 L 805.2,1340.3 L 804.5,1337.7 L 808.1,1331.0 L 822.1,1315.0 L 914.4,1214.0 L 1007.5,1114.1 L 1016.0,1107.7 L 1025.0,1105.5 L 1230.0,1105.2 L 1254.0,1103.9 L 1279.0,1098.5 L 1302.0,1090.5 L 1329.0,1075.6 L 1347.2,1062.1 L 1367.2,1040.0 L 1380.3,1020.0 L 1387.5,1001.0 L 1392.7,972.0 L 1392.1,947.0 L 1386.7,925.0 L 1378.1,906.0 L 1360.4,881.0 L 1358.9,876.3 L 1359.1,872.7 L 1362.3,867.6 L 1382.9,849.0 L 1400.3,829.6 L 1406.0,826.3 Z" fill="#ffffff" />
  </g>
  
  <!-- Text (White) -->
  <text x="230" y="122" font-size="72" class="brand-text">BERAXIS</text>
</svg>
